<?xml version="1.0" encoding="utf-8"?>
<!-- Generator: Adobe Illustrator 22.0.1, SVG Export Plug-In . SVG Version: 6.00 Build 0)  -->
<svg version="1.1" id="Capa_1" xmlns="http://www.w3.org/2000/svg" xmlns:xlink="http://www.w3.org/1999/xlink" x="0px" y="0px"
	 viewBox="0 0 52 52" style="enable-background:new 0 0 52 52;" xml:space="preserve">
<style type="text/css">
	.st0{fill:#2DCE89;}
</style>
<path class="st0" d="M26,0C11.7,0,0,11.7,0,26s11.7,26,26,26s26-11.7,26-26S40.3,0,26,0z M38.5,28H28v11c0,1.1-0.9,2-2,2s-2-0.9-2-2
	V28H13.5c-1.1,0-2-0.9-2-2s0.9-2,2-2H24V14c0-1.1,0.9-2,2-2s2,0.9,2,2v10h10.5c1.1,0,2,0.9,2,2S39.6,28,38.5,28z"/>
</svg>
