<?xml version="1.0" encoding="utf-8"?>
<!-- Generator: Adobe Illustrator 22.0.1, SVG Export Plug-In . SVG Version: 6.00 Build 0)  -->
<svg version="1.1" id="Layer_1" xmlns="http://www.w3.org/2000/svg" xmlns:xlink="http://www.w3.org/1999/xlink" x="0px" y="0px"
	 viewBox="0 0 601 601" style="enable-background:new 0 0 601 601;" xml:space="preserve">
<style type="text/css">
	.st0{fill:#875339;}
	.st1{fill:#F5365C;}
	.st2{fill:#FDB62F;}
	.st3{fill:#FFFFFF;}
</style>
<g id="surface1">
	<path class="st0" d="M153.1,142.6c-39.4,0-71.3-31.9-71.3-71.3V61.1h20.4v10.2c0,28.1,22.8,50.9,50.9,50.9S204,99.4,204,71.3
		C204,31.9,235.9,0,275.3,0s71.3,31.9,71.3,71.3v20.4h-20.4V71.3c0-28.1-22.8-50.9-50.9-50.9s-50.9,22.8-50.9,50.9
		C224.3,110.7,192.4,142.6,153.1,142.6z"/>
	<path class="st1" d="M387.4,138.1V81.5H285.5v56.6C159.2,166.2,79.6,291.4,107.7,417.7S261,623.6,387.4,595.5
		s205.9-153.3,177.8-279.7C545.4,227.1,476.1,157.8,387.4,138.1z"/>
	<path class="st2" d="M81.8,0h20.4v30.6H81.8V0z"/>
	<path class="st2" d="M30.8,50.9h30.6v20.4H30.8V50.9z"/>
	<path class="st2" d="M122.5,50.9h30.6v20.4h-30.6C122.5,71.3,122.5,50.9,122.5,50.9z"/>
	<path class="st2" d="M33.8,17.4L48.2,3l20.4,20.4L54.2,37.8L33.8,17.4z"/>
	<path class="st2" d="M115.3,23.4L135.7,3l14.4,14.4l-20.4,20.4L115.3,23.4z"/>
	<path class="st2" d="M33.8,104.9l20.4-20.4l14.4,14.4l-20.4,20.4L33.8,104.9z"/>
	<path class="st3" d="M366.3,356.6h-59.8c-16.9,0-30.6-13.7-30.6-30.6s13.7-30.6,30.6-30.6h91V275h-50.9v-20.4h-20.4V275h-19.7
		c-28.1,0-50.9,22.8-50.9,50.9s22.8,50.9,50.9,50.9h59.8c16.9,0,30.6,13.7,30.6,30.6S383.2,438,366.3,438h-91v20.4h50.9v20.4h20.4
		v-20.4h19.7c28.1,0,50.9-22.8,50.9-50.9C417.3,379.4,394.5,356.6,366.3,356.6z"/>
</g>
</svg>
