<?xml version="1.0" encoding="utf-8"?>
<!-- Generator: Adobe Illustrator 22.0.1, SVG Export Plug-In . SVG Version: 6.00 Build 0)  -->
<svg version="1.1" id="Layer_1" xmlns="http://www.w3.org/2000/svg" xmlns:xlink="http://www.w3.org/1999/xlink" x="0px" y="0px"
	 viewBox="0 0 512 512" style="enable-background:new 0 0 512 512;" xml:space="preserve">
<style type="text/css">
	.st0{fill:#FF5A73;}
	.st1{fill:#E6E6E6;}
</style>
<path class="st0" d="M512,256c0,141.4-114.6,256-256,256S0,397.4,0,256S114.6,0,256,0S512,114.6,512,256z"/>
<path class="st0" d="M256,495.3c-63.9,0-124-24.9-169.2-70.1C41.6,380,16.7,319.9,16.7,256S41.6,132,86.8,86.8
	C132,41.6,192.1,16.7,256,16.7s124,24.9,169.2,70.1c45.2,45.2,70.1,105.3,70.1,169.2s-24.9,124-70.1,169.2
	C380,470.4,319.9,495.3,256,495.3z"/>
<path class="st1" d="M427.1,196.8H84.9c-11,0-19.9,8.9-19.9,19.9v78.8c0,11,8.9,19.9,19.9,19.9h342.2c11,0,19.9-8.9,19.9-19.9v-78.8
	C447,205.7,438.1,196.8,427.1,196.8z"/>
</svg>
