<?xml version="1.0" encoding="utf-8"?>
<!-- Generator: Adobe Illustrator 22.0.1, SVG Export Plug-In . SVG Version: 6.00 Build 0)  -->
<svg version="1.1" id="Layer_1" xmlns="http://www.w3.org/2000/svg" xmlns:xlink="http://www.w3.org/1999/xlink" x="0px" y="0px"
	 viewBox="0 0 300 300" style="enable-background:new 0 0 300 300;" xml:space="preserve">
<style type="text/css">
	.st0{fill:#070200;}
</style>
<g>
	<g>
		<path class="st0" d="M150,0C67.2,0,0,67.2,0,150c0,82.8,67.2,150,150,150s150-67.2,150-150S232.8,0,150,0z M90.3,204.5
			c-5.7,0-10.4-4.6-10.4-10.4c0-5.7,4.6-10.4,10.4-10.4c5.7,0,10.4,4.6,10.4,10.4C100.7,199.8,96,204.5,90.3,204.5z M90.3,160.4
			c-5.7,0-10.4-4.6-10.4-10.4c0-5.7,4.6-10.4,10.4-10.4c5.7,0,10.4,4.6,10.4,10.4C100.7,155.7,96,160.4,90.3,160.4z M90.3,116.3
			c-5.7,0-10.4-4.6-10.4-10.4c0-5.7,4.6-10.4,10.4-10.4c5.7,0,10.4,4.6,10.4,10.4C100.7,111.6,96,116.3,90.3,116.3z M220,203.8
			h-97.1c-5.7,0-10.4-4.6-10.4-10.4s4.6-10.4,10.4-10.4H220c5.7,0,10.4,4.6,10.4,10.4S225.8,203.8,220,203.8z M220,160h-97.1
			c-5.7,0-10.4-4.6-10.4-10.4s4.6-10.4,10.4-10.4H220c5.7,0,10.4,4.6,10.4,10.4C230.4,155.4,225.8,160,220,160z M220,116.3h-97.1
			c-5.7,0-10.4-4.6-10.4-10.4s4.6-10.4,10.4-10.4H220c5.7,0,10.4,4.6,10.4,10.4S225.8,116.3,220,116.3z"/>
	</g>
</g>
</svg>
