<?xml version="1.0" encoding="utf-8"?>
<!-- Generator: Adobe Illustrator 22.0.1, SVG Export Plug-In . SVG Version: 6.00 Build 0)  -->
<svg version="1.1" id="Capa_1" xmlns="http://www.w3.org/2000/svg" xmlns:xlink="http://www.w3.org/1999/xlink" x="0px" y="0px"
	 viewBox="0 0 512 512" style="enable-background:new 0 0 512 512;" xml:space="preserve">
<style type="text/css">
	.st0{fill:#F83600;}
	.st1{fill:#FFFFFF;}
</style>
<circle class="st0" cx="256" cy="256" r="256"/>
<g>
	<path class="st1" d="M212.3,283v17.7h-67.1V197h65.9v17.7H164v25h40.7V256H164v27L212.3,283L212.3,283z"/>
	<path class="st1" d="M237,197l24.1,38.5l24-38.5h20.3l-34.5,52.5l33.4,51.1H284l-22.9-37.1l-23,37.1h-20.4l33.4-51.1L216.6,197
		L237,197L237,197z"/>
	<path class="st1" d="M315,300.6V197h18.8v103.6H315z"/>
	<path class="st1" d="M426.3,214.7h-30.9v86h-18.7v-86h-30.9V197h80.5V214.7z"/>
	<polygon class="st1" points="124.3,231.3 93.5,231.3 93.5,214.6 67.9,248.8 93.5,283 93.5,266.3 124.3,266.3 	"/>
</g>
</svg>
