<?xml version="1.0" encoding="utf-8"?>
<!-- Generator: Adobe Illustrator 22.0.1, SVG Export Plug-In . SVG Version: 6.00 Build 0)  -->
<svg version="1.1" id="Layer_1" xmlns="http://www.w3.org/2000/svg" xmlns:xlink="http://www.w3.org/1999/xlink" x="0px" y="0px"
	 viewBox="0 0 497.7 497.7" style="enable-background:new 0 0 497.7 497.7;" xml:space="preserve">
<style type="text/css">
	.st0{fill:#2DCE89;}
	.st1{fill:#14A362;}
	.st2{fill:#FFFFFF;}
</style>
<path class="st0" d="M464,404.8c0,97.6-96,92-215.2,92s-215.2,4.8-215.2-92c0-97.6,96-260,215.2-260C368,145.6,464,308,464,404.8z"
	/>
<path class="st0" d="M144,44.8C144-2.4,191.2,0,248.8,0s104.8-2.4,104.8,44.8s-47.2,126.4-104.8,126.4S144,92,144,44.8z"/>
<path class="st0" d="M340.8,154.4c0,8-6.4,14.4-14.4,14.4H171.2c-8,0-14.4-6.4-14.4-14.4v-4c0-8,6.4-14.4,14.4-14.4h156
	c8,0,14.4,6.4,14.4,14.4v4H340.8z"/>
<circle class="st1" cx="248.8" cy="339.2" r="96"/>
<path class="st2" d="M240.8,416.8v-20c-16-0.8-24.8-4-32-8l4.8-21.6c8,4,18.4,8,30.4,8c10.4,0,17.6-4,17.6-11.2s-5.6-11.2-20-16
	c-20-6.4-32.8-16-32.8-33.6c0-16,7.2-28.8,31.2-32.8v-16.8h16v16c16,0.8,21.6,3.2,27.2,6.4l-4.8,20.8c-4.8-2.4-12.8-6.4-26.4-6.4
	c-12,0-16,4.8-16,10.4c0,6.4,6.4,9.6,22.4,16c21.6,8,30.4,17.6,30.4,34.4s-8.8,30.4-32.8,34.4v20L240.8,416.8L240.8,416.8z"/>
</svg>
